<?xml version="1.0" encoding="UTF-8" standalone="no"?>
<svg
   width="16"
   height="16"
   version="1"
   id="svg12"
   sodipodi:docname="adwaita-dark.svg"
   inkscape:version="1.2.2 (b0a8486541, 2022-12-01)"
   xmlns:inkscape="http://www.inkscape.org/namespaces/inkscape"
   xmlns:sodipodi="http://sodipodi.sourceforge.net/DTD/sodipodi-0.dtd"
   xmlns="http://www.w3.org/2000/svg"
   xmlns:svg="http://www.w3.org/2000/svg">
  <defs
     id="defs16" />
  <sodipodi:namedview
     id="namedview14"
     pagecolor="#ffffff"
     bordercolor="#000000"
     borderopacity="0.25"
     inkscape:showpageshadow="2"
     inkscape:pageopacity="0.0"
     inkscape:pagecheckerboard="0"
     inkscape:deskcolor="#d1d1d1"
     showgrid="false"
     inkscape:zoom="34.1875"
     inkscape:cx="8"
     inkscape:cy="8.0146252"
     inkscape:window-width="1364"
     inkscape:window-height="713"
     inkscape:window-x="0"
     inkscape:window-y="0"
     inkscape:window-maximized="1"
     inkscape:current-layer="svg12" />
  <path
     style="fill:#666666"
     d="M 0 8 C 0.00022538125 8.4187445 0.15742799 8.8371359 0.47070312 9.1503906 L 6.8496094 15.529297 C 7.4761341 16.155806 8.525819 16.157734 9.1523438 15.53125 L 15.529297 9.1503906 C 15.842559 8.8371359 16 8.4189689 16 8 L 0 8 z"
     id="path2" />
  <path
     style="fill:#1a1a1a"
     d="M 0 8 L 16 8 C 16 7.5810311 15.842559 7.1628639 15.529297 6.8496094 L 9.1523438 0.46875 C 8.8390817 0.15549531 8.4190667 -1.110223e-16 8 0 C 7.5809338 0 7.1609185 0.15549527 6.8476562 0.46875 L 0.46875 6.8496094 C 0.15548763 7.1628638 -0.00022538125 7.5812555 0 8 z"
     id="path4" />
  <path
     style="fill:#cccccc"
     d="m 3,8 h 5 v 5 z m 0,0"
     id="path6" />
  <path
     style="fill:#b3b3b3"
     d="M 12,4 H 8 v 4.000001 z m 0,0"
     id="path8" />
  <path
     style="fill:#999999"
     d="m 8,8 h 3 v 3.000002 z m 0,0"
     id="path10" />
</svg>
