<?xml version="1.0" encoding="UTF-8" standalone="no"?>
<svg
   width="16"
   height="16"
   version="1.1"
   id="svg18"
   sodipodi:docname="root-theme.svg"
   inkscape:version="1.2.2 (b0a8486541, 2022-12-01)"
   xmlns:inkscape="http://www.inkscape.org/namespaces/inkscape"
   xmlns:sodipodi="http://sodipodi.sourceforge.net/DTD/sodipodi-0.dtd"
   xmlns="http://www.w3.org/2000/svg"
   xmlns:svg="http://www.w3.org/2000/svg">
  <defs
     id="defs22" />
  <sodipodi:namedview
     id="namedview20"
     pagecolor="#ffffff"
     bordercolor="#000000"
     borderopacity="0.25"
     inkscape:showpageshadow="2"
     inkscape:pageopacity="0.0"
     inkscape:pagecheckerboard="0"
     inkscape:deskcolor="#d1d1d1"
     showgrid="false"
     inkscape:zoom="34.1875"
     inkscape:cx="8.1023766"
     inkscape:cy="8.0146252"
     inkscape:window-width="1364"
     inkscape:window-height="721"
     inkscape:window-x="0"
     inkscape:window-y="0"
     inkscape:window-maximized="1"
     inkscape:current-layer="svg18" />
  <path
     fill="#1e88e5"
     d="m0.80078 1c-0.4432 0-0.80078 0.3464-0.80078 0.7773v11.222h16v-11.223c0-0.4309-0.358-0.7773-0.801-0.7773h-14.398z"
     id="path2"
     style="fill:#f33325;fill-opacity:1" />
  <path
     fill="#253951"
     d="m0.8 15c-0.4432 0-0.8-0.34686-0.8-0.77778l4e-8 -1.222h16v1.222c0 0.431-0.357 0.778-0.8 0.778z"
     id="path4"
     style="fill:#280000" />
  <path
     fill="#fff"
     d="m5 5v4.5c0 0.277 0.223 0.5 0.5 0.5h7c0.277 0 0.5-0.223 0.5-0.5v-4.5h-8z"
     id="path6"
     style="fill:#ffd5d5" />
  <path
     fill="#253951"
     d="m5.5 4h7c0.277 0 0.5 0.223 0.5 0.5v0.5h-8v-0.5c0-0.277 0.223-0.5 0.5-0.5z"
     id="path8"
     style="fill:#280000" />
  <rect
     fill="#fff"
     width="1"
     height="1"
     x="1"
     y="2"
     rx=".125"
     ry=".125"
     id="rect10"
     style="fill:#ffffff" />
  <rect
     fill="#fff"
     width="1"
     height="1"
     x="1"
     y="4"
     rx=".125"
     ry=".125"
     id="rect12"
     style="fill:#ffffff" />
  <rect
     fill="#fff"
     width="1"
     height="1"
     x="1"
     y="6"
     rx=".125"
     ry=".125"
     id="rect14"
     style="fill:#ffffff" />
  <rect
     fill="#fff"
     width="1"
     height="1"
     x="1"
     y="8"
     rx=".125"
     ry=".125"
     id="rect16"
     style="fill:#ffffff" />
</svg>
